<?xml version="1.0" encoding="utf-8"?>
<!-- Generator: Adobe Illustrator 23.0.4, SVG Export Plug-In . SVG Version: 6.00 Build 0)  -->
<svg version="1.1" id="bottom-frame" xmlns="http://www.w3.org/2000/svg" xmlns:xlink="http://www.w3.org/1999/xlink" x="0px"
	 y="0px" viewBox="0 0 279.1 346.6" style="enable-background:new 0 0 279.1 346.6;" xml:space="preserve">
<style type="text/css">
	.frame-color{fill:#000000;}
	.background-color{fill:#FFFFFF;}
	.text-color{fill:#FFFFFF;}
</style>

<svg xmlns="http://www.w3.org/2000/svg" xmlns:xlink="http://www.w3.org/1999/xlink" version="1.1" width="259.9" height="259.9" viewBox="0 0 2000 2000" x="9.7" y="9.6" shape-rendering="crispEdges"><defs/><rect x="0" y="0" width="2000" height="2000" fill="#ffffff"/><rect x="712" y="200" width="64" height="64" fill="#000000"/><rect x="776" y="200" width="64" height="64" fill="#000000"/><rect x="840" y="200" width="64" height="64" fill="#000000"/><rect x="968" y="200" width="64" height="64" fill="#000000"/><rect x="1032" y="200" width="64" height="64" fill="#000000"/><rect x="712" y="264" width="64" height="64" fill="#000000"/><rect x="776" y="264" width="64" height="64" fill="#000000"/><rect x="840" y="264" width="64" height="64" fill="#000000"/><rect x="1160" y="264" width="64" height="64" fill="#000000"/><rect x="712" y="328" width="64" height="64" fill="#000000"/><rect x="840" y="328" width="64" height="64" fill="#000000"/><rect x="904" y="328" width="64" height="64" fill="#000000"/><rect x="1032" y="328" width="64" height="64" fill="#000000"/><rect x="712" y="392" width="64" height="64" fill="#000000"/><rect x="776" y="392" width="64" height="64" fill="#000000"/><rect x="904" y="392" width="64" height="64" fill="#000000"/><rect x="1032" y="392" width="64" height="64" fill="#000000"/><rect x="1096" y="392" width="64" height="64" fill="#000000"/><rect x="1160" y="392" width="64" height="64" fill="#000000"/><rect x="1224" y="392" width="64" height="64" fill="#000000"/><rect x="1032" y="456" width="64" height="64" fill="#000000"/><rect x="1096" y="456" width="64" height="64" fill="#000000"/><rect x="1160" y="456" width="64" height="64" fill="#000000"/><rect x="1224" y="456" width="64" height="64" fill="#000000"/><rect x="712" y="520" width="64" height="64" fill="#000000"/><rect x="904" y="520" width="64" height="64" fill="#000000"/><rect x="968" y="520" width="64" height="64" fill="#000000"/><rect x="1032" y="520" width="64" height="64" fill="#000000"/><rect x="1096" y="520" width="64" height="64" fill="#000000"/><rect x="1160" y="520" width="64" height="64" fill="#000000"/><rect x="712" y="584" width="64" height="64" fill="#000000"/><rect x="840" y="584" width="64" height="64" fill="#000000"/><rect x="968" y="584" width="64" height="64" fill="#000000"/><rect x="1096" y="584" width="64" height="64" fill="#000000"/><rect x="1224" y="584" width="64" height="64" fill="#000000"/><rect x="776" y="648" width="64" height="64" fill="#000000"/><rect x="968" y="648" width="64" height="64" fill="#000000"/><rect x="1224" y="648" width="64" height="64" fill="#000000"/><rect x="200" y="712" width="64" height="64" fill="#000000"/><rect x="264" y="712" width="64" height="64" fill="#000000"/><rect x="456" y="712" width="64" height="64" fill="#000000"/><rect x="520" y="712" width="64" height="64" fill="#000000"/><rect x="584" y="712" width="64" height="64" fill="#000000"/><rect x="904" y="712" width="64" height="64" fill="#000000"/><rect x="1032" y="712" width="64" height="64" fill="#000000"/><rect x="1096" y="712" width="64" height="64" fill="#000000"/><rect x="1224" y="712" width="64" height="64" fill="#000000"/><rect x="1416" y="712" width="64" height="64" fill="#000000"/><rect x="1544" y="712" width="64" height="64" fill="#000000"/><rect x="1608" y="712" width="64" height="64" fill="#000000"/><rect x="1672" y="712" width="64" height="64" fill="#000000"/><rect x="1736" y="712" width="64" height="64" fill="#000000"/><rect x="264" y="776" width="64" height="64" fill="#000000"/><rect x="328" y="776" width="64" height="64" fill="#000000"/><rect x="392" y="776" width="64" height="64" fill="#000000"/><rect x="712" y="776" width="64" height="64" fill="#000000"/><rect x="776" y="776" width="64" height="64" fill="#000000"/><rect x="840" y="776" width="64" height="64" fill="#000000"/><rect x="968" y="776" width="64" height="64" fill="#000000"/><rect x="1096" y="776" width="64" height="64" fill="#000000"/><rect x="1288" y="776" width="64" height="64" fill="#000000"/><rect x="1544" y="776" width="64" height="64" fill="#000000"/><rect x="1736" y="776" width="64" height="64" fill="#000000"/><rect x="328" y="840" width="64" height="64" fill="#000000"/><rect x="456" y="840" width="64" height="64" fill="#000000"/><rect x="584" y="840" width="64" height="64" fill="#000000"/><rect x="712" y="840" width="64" height="64" fill="#000000"/><rect x="904" y="840" width="64" height="64" fill="#000000"/><rect x="968" y="840" width="64" height="64" fill="#000000"/><rect x="1032" y="840" width="64" height="64" fill="#000000"/><rect x="1096" y="840" width="64" height="64" fill="#000000"/><rect x="1160" y="840" width="64" height="64" fill="#000000"/><rect x="1224" y="840" width="64" height="64" fill="#000000"/><rect x="1480" y="840" width="64" height="64" fill="#000000"/><rect x="1672" y="840" width="64" height="64" fill="#000000"/><rect x="1736" y="840" width="64" height="64" fill="#000000"/><rect x="328" y="904" width="64" height="64" fill="#000000"/><rect x="392" y="904" width="64" height="64" fill="#000000"/><rect x="520" y="904" width="64" height="64" fill="#000000"/><rect x="648" y="904" width="64" height="64" fill="#000000"/><rect x="712" y="904" width="64" height="64" fill="#000000"/><rect x="840" y="904" width="64" height="64" fill="#000000"/><rect x="904" y="904" width="64" height="64" fill="#000000"/><rect x="1032" y="904" width="64" height="64" fill="#000000"/><rect x="1352" y="904" width="64" height="64" fill="#000000"/><rect x="1608" y="904" width="64" height="64" fill="#000000"/><rect x="1672" y="904" width="64" height="64" fill="#000000"/><rect x="1736" y="904" width="64" height="64" fill="#000000"/><rect x="200" y="968" width="64" height="64" fill="#000000"/><rect x="328" y="968" width="64" height="64" fill="#000000"/><rect x="584" y="968" width="64" height="64" fill="#000000"/><rect x="648" y="968" width="64" height="64" fill="#000000"/><rect x="712" y="968" width="64" height="64" fill="#000000"/><rect x="840" y="968" width="64" height="64" fill="#000000"/><rect x="968" y="968" width="64" height="64" fill="#000000"/><rect x="1032" y="968" width="64" height="64" fill="#000000"/><rect x="1224" y="968" width="64" height="64" fill="#000000"/><rect x="1288" y="968" width="64" height="64" fill="#000000"/><rect x="1352" y="968" width="64" height="64" fill="#000000"/><rect x="1672" y="968" width="64" height="64" fill="#000000"/><rect x="1736" y="968" width="64" height="64" fill="#000000"/><rect x="200" y="1032" width="64" height="64" fill="#000000"/><rect x="264" y="1032" width="64" height="64" fill="#000000"/><rect x="328" y="1032" width="64" height="64" fill="#000000"/><rect x="712" y="1032" width="64" height="64" fill="#000000"/><rect x="776" y="1032" width="64" height="64" fill="#000000"/><rect x="1032" y="1032" width="64" height="64" fill="#000000"/><rect x="1096" y="1032" width="64" height="64" fill="#000000"/><rect x="1352" y="1032" width="64" height="64" fill="#000000"/><rect x="1544" y="1032" width="64" height="64" fill="#000000"/><rect x="1672" y="1032" width="64" height="64" fill="#000000"/><rect x="1736" y="1032" width="64" height="64" fill="#000000"/><rect x="328" y="1096" width="64" height="64" fill="#000000"/><rect x="392" y="1096" width="64" height="64" fill="#000000"/><rect x="584" y="1096" width="64" height="64" fill="#000000"/><rect x="648" y="1096" width="64" height="64" fill="#000000"/><rect x="776" y="1096" width="64" height="64" fill="#000000"/><rect x="840" y="1096" width="64" height="64" fill="#000000"/><rect x="1224" y="1096" width="64" height="64" fill="#000000"/><rect x="1480" y="1096" width="64" height="64" fill="#000000"/><rect x="1672" y="1096" width="64" height="64" fill="#000000"/><rect x="328" y="1160" width="64" height="64" fill="#000000"/><rect x="392" y="1160" width="64" height="64" fill="#000000"/><rect x="456" y="1160" width="64" height="64" fill="#000000"/><rect x="648" y="1160" width="64" height="64" fill="#000000"/><rect x="712" y="1160" width="64" height="64" fill="#000000"/><rect x="776" y="1160" width="64" height="64" fill="#000000"/><rect x="840" y="1160" width="64" height="64" fill="#000000"/><rect x="968" y="1160" width="64" height="64" fill="#000000"/><rect x="1096" y="1160" width="64" height="64" fill="#000000"/><rect x="1352" y="1160" width="64" height="64" fill="#000000"/><rect x="1608" y="1160" width="64" height="64" fill="#000000"/><rect x="200" y="1224" width="64" height="64" fill="#000000"/><rect x="264" y="1224" width="64" height="64" fill="#000000"/><rect x="328" y="1224" width="64" height="64" fill="#000000"/><rect x="456" y="1224" width="64" height="64" fill="#000000"/><rect x="520" y="1224" width="64" height="64" fill="#000000"/><rect x="584" y="1224" width="64" height="64" fill="#000000"/><rect x="648" y="1224" width="64" height="64" fill="#000000"/><rect x="712" y="1224" width="64" height="64" fill="#000000"/><rect x="840" y="1224" width="64" height="64" fill="#000000"/><rect x="904" y="1224" width="64" height="64" fill="#000000"/><rect x="1032" y="1224" width="64" height="64" fill="#000000"/><rect x="1096" y="1224" width="64" height="64" fill="#000000"/><rect x="1224" y="1224" width="64" height="64" fill="#000000"/><rect x="1288" y="1224" width="64" height="64" fill="#000000"/><rect x="1352" y="1224" width="64" height="64" fill="#000000"/><rect x="1416" y="1224" width="64" height="64" fill="#000000"/><rect x="1480" y="1224" width="64" height="64" fill="#000000"/><rect x="1736" y="1224" width="64" height="64" fill="#000000"/><rect x="712" y="1288" width="64" height="64" fill="#000000"/><rect x="776" y="1288" width="64" height="64" fill="#000000"/><rect x="840" y="1288" width="64" height="64" fill="#000000"/><rect x="968" y="1288" width="64" height="64" fill="#000000"/><rect x="1224" y="1288" width="64" height="64" fill="#000000"/><rect x="1480" y="1288" width="64" height="64" fill="#000000"/><rect x="1544" y="1288" width="64" height="64" fill="#000000"/><rect x="1736" y="1288" width="64" height="64" fill="#000000"/><rect x="776" y="1352" width="64" height="64" fill="#000000"/><rect x="904" y="1352" width="64" height="64" fill="#000000"/><rect x="968" y="1352" width="64" height="64" fill="#000000"/><rect x="1032" y="1352" width="64" height="64" fill="#000000"/><rect x="1096" y="1352" width="64" height="64" fill="#000000"/><rect x="1224" y="1352" width="64" height="64" fill="#000000"/><rect x="1352" y="1352" width="64" height="64" fill="#000000"/><rect x="1480" y="1352" width="64" height="64" fill="#000000"/><rect x="712" y="1416" width="64" height="64" fill="#000000"/><rect x="840" y="1416" width="64" height="64" fill="#000000"/><rect x="904" y="1416" width="64" height="64" fill="#000000"/><rect x="1032" y="1416" width="64" height="64" fill="#000000"/><rect x="1224" y="1416" width="64" height="64" fill="#000000"/><rect x="1480" y="1416" width="64" height="64" fill="#000000"/><rect x="1544" y="1416" width="64" height="64" fill="#000000"/><rect x="1608" y="1416" width="64" height="64" fill="#000000"/><rect x="1672" y="1416" width="64" height="64" fill="#000000"/><rect x="1736" y="1416" width="64" height="64" fill="#000000"/><rect x="712" y="1480" width="64" height="64" fill="#000000"/><rect x="776" y="1480" width="64" height="64" fill="#000000"/><rect x="968" y="1480" width="64" height="64" fill="#000000"/><rect x="1032" y="1480" width="64" height="64" fill="#000000"/><rect x="1224" y="1480" width="64" height="64" fill="#000000"/><rect x="1288" y="1480" width="64" height="64" fill="#000000"/><rect x="1352" y="1480" width="64" height="64" fill="#000000"/><rect x="1416" y="1480" width="64" height="64" fill="#000000"/><rect x="1480" y="1480" width="64" height="64" fill="#000000"/><rect x="776" y="1544" width="64" height="64" fill="#000000"/><rect x="1032" y="1544" width="64" height="64" fill="#000000"/><rect x="1096" y="1544" width="64" height="64" fill="#000000"/><rect x="1224" y="1544" width="64" height="64" fill="#000000"/><rect x="1288" y="1544" width="64" height="64" fill="#000000"/><rect x="1352" y="1544" width="64" height="64" fill="#000000"/><rect x="1416" y="1544" width="64" height="64" fill="#000000"/><rect x="1544" y="1544" width="64" height="64" fill="#000000"/><rect x="1672" y="1544" width="64" height="64" fill="#000000"/><rect x="1736" y="1544" width="64" height="64" fill="#000000"/><rect x="840" y="1608" width="64" height="64" fill="#000000"/><rect x="1224" y="1608" width="64" height="64" fill="#000000"/><rect x="1480" y="1608" width="64" height="64" fill="#000000"/><rect x="1672" y="1608" width="64" height="64" fill="#000000"/><rect x="712" y="1672" width="64" height="64" fill="#000000"/><rect x="776" y="1672" width="64" height="64" fill="#000000"/><rect x="968" y="1672" width="64" height="64" fill="#000000"/><rect x="1096" y="1672" width="64" height="64" fill="#000000"/><rect x="1160" y="1672" width="64" height="64" fill="#000000"/><rect x="1416" y="1672" width="64" height="64" fill="#000000"/><rect x="1480" y="1672" width="64" height="64" fill="#000000"/><rect x="1544" y="1672" width="64" height="64" fill="#000000"/><rect x="1608" y="1672" width="64" height="64" fill="#000000"/><rect x="1736" y="1672" width="64" height="64" fill="#000000"/><rect x="712" y="1736" width="64" height="64" fill="#000000"/><rect x="840" y="1736" width="64" height="64" fill="#000000"/><rect x="904" y="1736" width="64" height="64" fill="#000000"/><rect x="1032" y="1736" width="64" height="64" fill="#000000"/><rect x="1096" y="1736" width="64" height="64" fill="#000000"/><rect x="1288" y="1736" width="64" height="64" fill="#000000"/><rect x="1416" y="1736" width="64" height="64" fill="#000000"/><rect x="1480" y="1736" width="64" height="64" fill="#000000"/><rect x="1544" y="1736" width="64" height="64" fill="#000000"/><rect x="1608" y="1736" width="64" height="64" fill="#000000"/><rect x="1672" y="1736" width="64" height="64" fill="#000000"/><rect x="1736" y="1736" width="64" height="64" fill="#000000"/><svg version="1.1" id="Ebene_1" x="200" y="200" width="448" height="448" viewBox="0 0 699.988 699.986" enable-background="new 0 0 699.988 699.986" xml:space="preserve" shape-rendering="auto">
<path fill="#000000" d="M600.99,0h-100h-99.997h-0.001h-99.997h-99.998h-99.998H1v99.998v99.998v99.998v99.999v99.997v99.998v99.998  h99.999h99.998h99.998h99.997h0.001h99.997h100h99.998v-99.998V499.99v-99.997v-99.999v-99.998V99.998V0H600.99z M600.99,199.996  v99.998v99.999v99.997v99.998h-100h-99.997h-0.001h-99.997h-99.998h-99.998V499.99v-99.997v-99.999v-99.998V99.998h99.998h99.998  h99.997h0.001h99.997h100V199.996z"/>
</svg>
<svg version="1.0" id="Ebene_1" x="200" y="200" width="448" height="448" viewBox="0 0 699.988 699.988" enable-background="new 0 0 699.988 699.988" xml:space="preserve" shape-rendering="auto">
<polygon fill="#000000" points="399.994,199.997 399.992,199.997 299.996,199.997 199.998,199.997 199.998,299.994 199.998,399.994   199.998,499.991 299.996,499.991 399.992,499.991 399.994,499.991 499.99,499.991 499.99,399.994 499.99,299.994 499.99,199.997 "/>
</svg>
<svg version="1.1" id="Ebene_1" x="1352" y="200" width="448" height="448" viewBox="0 0 699.988 699.986" enable-background="new 0 0 699.988 699.986" xml:space="preserve" shape-rendering="auto">
<path fill="#000000" d="M600.99,0h-100h-99.997h-0.001h-99.997h-99.998h-99.998H1v99.998v99.998v99.998v99.999v99.997v99.998v99.998  h99.999h99.998h99.998h99.997h0.001h99.997h100h99.998v-99.998V499.99v-99.997v-99.999v-99.998V99.998V0H600.99z M600.99,199.996  v99.998v99.999v99.997v99.998h-100h-99.997h-0.001h-99.997h-99.998h-99.998V499.99v-99.997v-99.999v-99.998V99.998h99.998h99.998  h99.997h0.001h99.997h100V199.996z"/>
</svg>
<svg version="1.0" id="Ebene_1" x="1352" y="200" width="448" height="448" viewBox="0 0 699.988 699.988" enable-background="new 0 0 699.988 699.988" xml:space="preserve" shape-rendering="auto">
<polygon fill="#000000" points="399.994,199.997 399.992,199.997 299.996,199.997 199.998,199.997 199.998,299.994 199.998,399.994   199.998,499.991 299.996,499.991 399.992,499.991 399.994,499.991 499.99,499.991 499.99,399.994 499.99,299.994 499.99,199.997 "/>
</svg>
<svg version="1.1" id="Ebene_1" x="200" y="1352" width="448" height="448" viewBox="0 0 699.988 699.986" enable-background="new 0 0 699.988 699.986" xml:space="preserve" shape-rendering="auto">
<path fill="#000000" d="M600.99,0h-100h-99.997h-0.001h-99.997h-99.998h-99.998H1v99.998v99.998v99.998v99.999v99.997v99.998v99.998  h99.999h99.998h99.998h99.997h0.001h99.997h100h99.998v-99.998V499.99v-99.997v-99.999v-99.998V99.998V0H600.99z M600.99,199.996  v99.998v99.999v99.997v99.998h-100h-99.997h-0.001h-99.997h-99.998h-99.998V499.99v-99.997v-99.999v-99.998V99.998h99.998h99.998  h99.997h0.001h99.997h100V199.996z"/>
</svg>
<svg version="1.0" id="Ebene_1" x="200" y="1352" width="448" height="448" viewBox="0 0 699.988 699.988" enable-background="new 0 0 699.988 699.988" xml:space="preserve" shape-rendering="auto">
<polygon fill="#000000" points="399.994,199.997 399.992,199.997 299.996,199.997 199.998,199.997 199.998,299.994 199.998,399.994   199.998,499.991 299.996,499.991 399.992,499.991 399.994,499.991 499.99,499.991 499.99,399.994 499.99,299.994 499.99,199.997 "/>
</svg>
</svg>

<path id="FrameBody" class="frame-color" d="M13.7,346.6h251.7c7.6,0,13.7-6.2,13.7-13.7V13.7c0-7.6-6.2-13.7-13.7-13.7H13.8C6.2,0,0.1,6.2,0,13.7
	v319.2C0,340.5,6.2,346.6,13.7,346.6z M10.6,17.9c0-4.1,3.3-7.4,7.4-7.4h243.2c4.1,0,7.4,3.3,7.4,7.4v243.3c0,4.1-3.3,7.4-7.4,7.4
	H18c-4.1,0-7.4-3.3-7.4-7.4V17.9z"/>

<path id="CallToAction" class="text-color" d="M54.9,320.2c4.6-0.1,7-1.7,7-5c0-2.7-1.5-4.2-4.6-4.8c-1.4-0.2-3-0.4-4.7-0.7
	c-3.1-0.5-5.4-1.6-7-3.4s-2.5-4-2.5-6.6c0-3.1,1-5.6,3.1-7.5c2-1.9,4.8-2.8,8.5-2.9c4.4,0.1,8.3,1.3,11.5,3.7l-3,4.4
	c-2.7-1.8-5.6-2.7-8.8-2.7c-1.7,0-3,0.4-4.2,1.2c-1.2,0.9-1.8,2.1-1.8,3.9c0,1,0.4,2,1.2,2.8s2.1,1.4,3.8,1.8c1,0.2,2.3,0.4,4,0.6
	c3.3,0.5,5.8,1.7,7.4,3.6s2.4,4.1,2.4,6.6c-0.2,6.8-4.3,10.3-12.5,10.4c-5.3,0-9.8-1.6-13.6-4.9l3.5-4.1
	C47.6,319,51,320.2,54.9,320.2z M96.9,315.4c-0.8,3.3-2.3,5.8-4.5,7.6c-2.3,1.8-4.9,2.6-8,2.6c-2.8-0.1-5.1-0.7-7-2.1
	c-1.9-1.3-3.3-2.7-4.2-4.3c-0.3-0.5-0.5-1-0.7-1.5s-0.4-1.1-0.5-1.9c-0.2-1.4-0.4-4.2-0.4-8.3c0-4.1,0.1-6.9,0.4-8.3
	s0.7-2.5,1.2-3.4c0.9-1.6,2.2-3.1,4.2-4.4c1.9-1.3,4.2-2,7-2c3.4,0,6.2,1,8.4,3.1c2.2,2,3.5,4.5,4.1,7.5h-5.7
	c-0.4-1.4-1.2-2.7-2.4-3.7s-2.7-1.5-4.4-1.5c-1.3,0-2.4,0.3-3.3,0.8s-1.7,1.1-2.2,1.8c-0.7,0.8-1.2,1.8-1.4,3
	c-0.3,1.3-0.4,3.7-0.4,7.2s0.1,5.9,0.4,7.1c0.2,1.2,0.7,2.2,1.4,3c0.6,0.7,1.3,1.3,2.2,1.8s2,0.8,3.3,0.8c3,0,5.3-1.6,6.8-4.9
	L96.9,315.4L96.9,315.4z M119.1,317.4h-13.5l-2.7,8h-5.7l12.9-35.6h4.5l12.9,35.6h-5.7L119.1,317.4z M117.4,312.6l-5.2-15.6h-0.1
	l-5.2,15.6H117.4z M131.2,289.7h5.1l16.1,25.3h0.1v-25.3h5.4v35.6h-5.1l-16-25.3h-0.1v25.3h-5.4v-35.6H131.2z M177.4,289.7h5.1
	l10.2,23.2l10-23.2h5.1v35.6h-5.4v-22.2h-0.1l-7.4,17.1h-4.5l-7.4-17.1h0v22.2h-5.4v-35.6H177.4z M215.3,289.7H238v5.1h-17.3V305
	h14.8v4.8h-14.8v10.4H238v5.1h-22.7V289.7z"/>
</svg>
